<svg viewBox="0 0 54 54" xmlns="http://www.w3.org/2000/svg" xmlns:xlink="http://www.w3.org/1999/xlink"><mask id="a"><path d="m.06 0h53.943v53.94h-53.943z" fill="#fff"/></mask><g fill="#0071a1" fill-rule="evenodd"><path d="m50.003 0h-46.017c-2.2 0-3.986 1.744-3.986 3.891v46.213c0 2.15 1.786 3.896 3.986 3.896h46.017c2.202 0 4-1.746 4-3.896v-46.213c0-2.147-1.798-3.891-4-3.891" mask="url(#a)"/><g fill="#fffffe"><path d="m12.011 7.434c2.56 0 4.641 2.082 4.641 4.643 0 2.564-2.081 4.645-4.641 4.645-2.568 0-4.643-2.081-4.643-4.645 0-2.561 2.075-4.643 4.643-4.643zm-4.007 38.58h8.013v-25.769h-8.013z"/><path d="m21.04 20.245h7.684v3.521h.109c1.069-2.026 3.683-4.163 7.579-4.163 8.105 0 9.602 5.336 9.602 12.277v14.135h-8v-12.532c0-2.989-.059-6.833-4.163-6.833-4.168 0-4.804 3.255-4.804 6.618v12.747h-8.007z"/></g></g></svg>