<svg xmlns="http://www.w3.org/2000/svg" viewBox="0 0 530 530"><title>LinkedIn</title><g fill="none" fill-rule="nonzero"><path fill="#0A66C2" d="M490.369.036H39.08C17.894-.203.259 17.023 0 38.209V491.37c.25 21.196 17.884 38.439 39.08 38.216h451.289c21.239.264 38.941-16.978 39.235-38.216V38.176C529.302 16.948 511.597-.276 490.369.001"/><path fill="#FFF" d="M451.248 451.243h-78.471V328.355c0-29.304-.523-67.027-40.813-67.027-40.87 0-47.123 31.928-47.123 64.893v125.014H206.37V198.527h75.332v34.535h1.055c15.339-26.227 43.964-41.948 74.326-40.821 79.534 0 94.198 52.314 94.198 120.371l-.033 138.631zM117.829 163.983h-.008c-24.981 0-45.538-20.556-45.538-45.538 0-24.981 20.557-45.537 45.538-45.537 24.978 0 45.533 20.551 45.537 45.529v.008c0 24.979-20.551 45.534-45.529 45.538M157.064 451.243H78.512V198.527h78.552z"/></g></svg>
