<svg viewBox="0 0 250 250" xmlns="http://www.w3.org/2000/svg"><g fill="none" fill-rule="evenodd" transform="translate(-75 -75)"><path d="m0 0h400v400h-400z"/><path d="m153.62 301.59c94.34 0 145.94-78.16 145.94-145.94 0-2.22 0-4.43-.15-6.63l-.000002.000002c10.0383-7.26089 18.7036-16.2512 25.59-26.55l-.000003.000001c-9.36121 4.14802-19.2917 6.86829-29.46 8.07h-.000001c10.7074-6.41018 18.7212-16.4923 22.55-28.37l.000003-.000001c-10.0684 5.97455-21.0835 10.1851-32.57 12.45l-.000002-.000002c-19.425-20.6551999-51.9164-21.6523999-72.5715-2.22742-13.3209 12.5275-18.9729 31.1948-14.8384 49.0074h-.000009c-41.241-2.0675-79.6652-21.5468-105.7099998-53.59l.0000024-.000004c-13.6138 23.4364-6.66013 53.4186 15.8800004 68.47h-.000001c-8.16259-.241924-16.1471997-2.44387-23.2799997-6.42v.65l-.000002-.014033c.0000037 24.4159 17.2050997 45.4501 41.1361997 50.2913l.000001-.000001c-7.5513 2.0594-15.4742 2.36044-23.16.880002l-.000001-.000004c6.71948 20.8942 25.9757 35.2078 47.92 35.62v.000001c-18.1626 14.2743-40.5994 22.0233-63.7000005 22h-.0000017c-4.07632-.007449-8.14871-.253611-12.1963-.737221l.0000065.000004c23.4564 15.0528 50.7490997 23.0372 78.6199997 23" fill="#1da1f2" fill-rule="nonzero"/></g></svg>